# xmcd CD database file
#
# Track frame offsets:
#	150
#	11472
#	23987
#	34287
#	49080
#	67792
#	83782
#	95927
#	115447
#	130992
#	146282
#	160530
#	182200
#	192887
#	207115
#
# Disc length: 2984 seconds
#
# Revision: 8
# Processed by: cddbd v1.5.2PL0 Copyright (c) Steve Scherf et al.
# Submitted via: CDex 2.03
#
DISCID=c90ba60f
DTITLE=Various Artist - Goin' Home, A Tribute To Fats Domino 1 of 2
DYEAR=2007
DGENRE=Tribute
TTITLE0=Lennon, John - Ain't That A Shame
TTITLE1=Petty, Tom and The Heartbreakers - I'm Walkin'
TTITLE2=King, B.B. with Ivan Neville's Dumpstaphunk - Goin' Home
TTITLE3=John, Elton - Blueberry Hill
TTITLE4=Taj Mahal and The New Orleans Social Club - My Girl Josephine
TTITLE5=Dirty Dozen Brass Band, The with Joss Stone, Buddy Guy - Every Night About This Time
TTITLE6=McCartney, Paul featuring Allen Toussaint - I Want To Walk You Home
TTITLE7=Kravitz, Lenny w Rebirth Brass Band,T.Andrews,F.Wesley,P.W.Ellis,M.Parker - Whole Lotta Loving
TTITLE8=Dr. John - Don't Leave Me This Way
TTITLE9=Raitt, Bonnie and Jon Cleary - I'm In Love Again All By Myself
TTITLE10=Neville, Art - Please Don't Leave Me
TTITLE11=Robertson, Robbie with Galactic - Going To The River
TTITLE12=Newman, Randy - Blue Monday
TTITLE13=Plant, Robert with Lil' Band o' Gold - It Keep's Raining
TTITLE14=Rae, Corinne Baley - One Night (Of Sin)
EXTD=YEAR: 2007
EXTT0=
EXTT1=
EXTT2=
EXTT3=
EXTT4=
EXTT5=
EXTT6=
EXTT7=
EXTT8=
EXTT9=
EXTT10=
EXTT11=
EXTT12=
EXTT13=
EXTT14=
PLAYORDER=
